<svg width="24" height="24" viewBox="0 0 24 24" fill="none" xmlns="http://www.w3.org/2000/svg">
<circle cx="12" cy="12" r="9.5" stroke="white"/>
<path d="M12.9371 7.75718C12.803 7.51579 12.4986 7.42881 12.2572 7.56292C12.0158 7.69703 11.9288 8.00143 12.0629 8.24282L12.9371 7.75718ZM14.5 16C14.5 16.2761 14.7239 16.5 15 16.5C15.2761 16.5 15.5 16.2761 15.5 16H14.5ZM18.416 8.27735C18.5692 8.04759 18.5071 7.73715 18.2774 7.58397C18.0476 7.4308 17.7372 7.49289 17.584 7.72265L18.416 8.27735ZM12.0629 8.24282L14.5629 12.7428L15.4371 12.2572L12.9371 7.75718L12.0629 8.24282ZM14.5 12.5V16H15.5V12.5H14.5ZM15.416 12.7774L18.416 8.27735L17.584 7.72265L14.584 12.2226L15.416 12.7774Z" fill="white"/>
<path d="M10.5 8C10.5 7.72386 10.2761 7.5 10 7.5C9.72386 7.5 9.5 7.72386 9.5 8H10.5ZM6.5 14C6.5 13.7239 6.27614 13.5 6 13.5C5.72386 13.5 5.5 13.7239 5.5 14H6.5ZM9.5 8V14H10.5V8H9.5ZM10 14C9.5 14 9.5 13.9998 9.5 13.9995C9.5 13.9995 9.5 13.9992 9.5 13.9991C9.5 13.9988 9.5 13.9986 9.5 13.9984C9.5 13.998 9.50001 13.9977 9.50001 13.9975C9.50001 13.9971 9.50001 13.9972 9.5 13.9977C9.49999 13.9987 9.49993 14.0014 9.49979 14.0058C9.4995 14.0146 9.49884 14.0297 9.49736 14.0503C9.49441 14.0917 9.48825 14.1541 9.47555 14.2303C9.44976 14.3851 9.39911 14.5838 9.30279 14.7764C9.20744 14.9671 9.07228 15.1426 8.8789 15.2715C8.68865 15.3983 8.41251 15.5 8 15.5V16.5C8.58749 16.5 9.06135 16.3517 9.4336 16.1035C9.80272 15.8574 10.0426 15.5329 10.1972 15.2236C10.3509 14.9162 10.4252 14.6149 10.4619 14.3947C10.4805 14.2834 10.49 14.1895 10.4948 14.1216C10.4973 14.0875 10.4985 14.0597 10.4992 14.0391C10.4996 14.0288 10.4998 14.0204 10.4999 14.0138C10.4999 14.0105 10.5 14.0077 10.5 14.0054C10.5 14.0043 10.5 14.0032 10.5 14.0023C10.5 14.0019 10.5 14.0015 10.5 14.0011C10.5 14.0009 10.5 14.0006 10.5 14.0005C10.5 14.0003 10.5 14 10 14ZM8 15.5C7.58749 15.5 7.31135 15.3983 7.1211 15.2715C6.92772 15.1426 6.79256 14.9671 6.69721 14.7764C6.60089 14.5838 6.55024 14.3851 6.52445 14.2303C6.51175 14.1541 6.50559 14.0917 6.50264 14.0503C6.50116 14.0297 6.5005 14.0146 6.50021 14.0058C6.50007 14.0014 6.50001 13.9987 6.5 13.9977C6.49999 13.9972 6.49999 13.9971 6.49999 13.9975C6.49999 13.9977 6.5 13.998 6.5 13.9984C6.5 13.9986 6.5 13.9988 6.5 13.9991C6.5 13.9992 6.5 13.9995 6.5 13.9995C6.5 13.9998 6.5 14 6 14C5.5 14 5.5 14.0003 5.5 14.0005C5.5 14.0006 5.5 14.0009 5.5 14.0011C5.5 14.0015 5.5 14.0019 5.5 14.0023C5.50001 14.0032 5.50001 14.0043 5.50002 14.0054C5.50004 14.0077 5.50007 14.0105 5.50013 14.0138C5.50023 14.0204 5.50042 14.0288 5.50077 14.0391C5.50145 14.0597 5.50274 14.0875 5.50518 14.1216C5.51003 14.1895 5.5195 14.2834 5.53805 14.3947C5.57476 14.6149 5.64911 14.9162 5.80279 15.2236C5.95744 15.5329 6.19728 15.8574 6.5664 16.1035C6.93865 16.3517 7.41251 16.5 8 16.5V15.5Z" fill="white"/>
</svg>
